<svg xmlns="http://www.w3.org/2000/svg" width="480" height="400"><g transform="translate(-220 -40)"><defs><marker id="closed-circle-at-center" viewBox="0 0 10 10" refX="5" refY="5" markerUnits="userSpaceOnUse" markerWidth="8" markerHeight="8" orient="auto-start-reverse"><circle cx="5" cy="5" r="5" fill="context-fill" stroke="context-stroke"/></marker><marker id="closed-circle-at-border" viewBox="0 0 10 10" refX="10" refY="5" markerUnits="userSpaceOnUse" markerWidth="8" markerHeight="8" orient="auto-start-reverse"><circle cx="5" cy="5" r="5" fill="context-fill" stroke="context-stroke"/></marker><marker id="closed-arrow" viewBox="0 0 10 10" refX="10" refY="5" markerUnits="userSpaceOnUse" markerWidth="8" markerHeight="8" orient="auto-start-reverse"><path d="M 0 0 L 10 5 L 0 10 z" fill="context-fill" stroke="context-stroke"/></marker><marker id="open-arrow" viewBox="0 0 10 10" refX="10" refY="5" markerUnits="userSpaceOnUse" markerWidth="8" markerHeight="8" orient="auto-start-reverse"><path d="M 0,0 L 10,5 M 10,5 L 0,10" stroke="black"/></marker></defs><path marker-end="url(#closed-arrow)" d="M 600,340 L 600,280" style="stroke-width: 1; stroke: black;"/><path marker-end="url(#closed-arrow)" d="M 600,200 L 600,140" style="stroke-width: 1; stroke: black;"/><path stroke-width="1.5" stroke-linecap="butt" stroke-linejoin="round" d="M 520,225 L 440,190" style="stroke: black; stroke-dasharray: 1.5, 10;"/><g data-kie-dmn-node-id="#_45C1272A-23DD-4B0E-8784-71D71EA1FBDC"><rect x="520.75" y="200.75" stroke-width="1.5" width="158.5" height="78.6" fill="rgba(255, 255, 255, 0.9)" stroke="rgba(0, 0, 0, 1)" stroke-linejoin="round"/><svg x="0" y="calc(1.5em * 0)" style="overflow: visible;"><text transform="translate(600,240)" text-anchor="middle" style="font-family: arial; font-size: 16px; color: rgb(0, 0, 0); line-height: 1.5em;"><tspan x="0" dy="-0.395em">Eligibility Score</tspan><tspan x="0" dy="1.5em">Calculation</tspan></text></svg></g><g data-kie-dmn-node-id="#_65DFDCC7-0B7E-4D5B-BA70-726BBEAB22F3"><rect x="520.75" y="60.75" stroke-width="1.5" width="158.5" height="78.6" fill="rgba(255, 255, 255, 0.9)" stroke="rgba(0, 0, 0, 1)" stroke-linejoin="round"/><svg x="0" y="calc(1.5em * 0)" style="overflow: visible;"><text transform="translate(600,100)" text-anchor="middle" style="font-family: arial; font-size: 16px; color: rgb(0, 0, 0); line-height: 1.5em;"><tspan x="0" dy="0.355em">IsEligible</tspan></text></svg></g><g data-kie-dmn-node-id="#_9C70F987-F747-4651-A293-CCFF5B96DDC9"><rect x="520.75" y="340.75" width="158.5" height="78.6" fill="rgba(255, 255, 255, 0.9)" stroke="rgba(0, 0, 0, 1)" stroke-linejoin="round" stroke-width="1.5" rx="39.3" ry="79.25"/><svg x="0" y="calc(1.5em * 0)" style="overflow: visible;"><text transform="translate(600,380)" text-anchor="middle" style="font-family: arial; font-size: 16px; color: rgb(0, 0, 0); line-height: 1.5em;"><tspan x="0" dy="0.355em">Applicant</tspan></text></svg></g><g data-kie-dmn-node-id="#_2C9704EA-E2BC-4367-8E73-7AEDC78BA1AE"><rect x="240.75" y="160.75" width="198.5" height="58.6" fill="rgba(255, 255, 255, 0.1)" stroke="transparent" stroke-linejoin="round" transform="translate(240.75,160.75)"/><path x="240.75" y="160.75" fill="rgba(255, 255, 255, 0.1)" d="M20,0 L0,0 M0,0 L0,58.6 M0,58.6 L20,58.6" stroke="rgba(0, 0, 0, 1)" stroke-width="1.5" stroke-linejoin="round" transform="translate(240.75,160.75)"/><svg x="0" y="calc(1.5em * 0)" style="overflow: visible;"><text transform="translate(258,178)" text-anchor="start" style="font-family: arial; font-size: 16px; color: rgb(0, 0, 0); line-height: 1.5em;"><tspan x="0" dy="0.71em">Evaluate Credit Score</tspan></text></svg></g></g></svg>